PathFileType	4	(X/Y/Z)	C:/Users/opensim2020/Desktop/walking_exp_matlab/subject03_walking12_straight_04.trc																																																																																																																																														
DataRate	CameraRate	NumFrames	NumMarkers	Units	OrigDataRate	OrigDataStartFrame	OrigNumFrames																																																																																																																																										
100	100	5	48	mm	100	2247	202																																																																																																																																										
Frame#	Time	LFHD			RFHD			LBHD			RBHD			C7			T10			CLAV			STRN			RBAK			LSHO			LUPA			LELB			LFRM			LWRA			LWRB			LFIN			RSHO			RUPA			RELB			RFRM			RWRA			RWRB			RFIN			LASI			RASI			LPSI			RPSI			LTHI			LKNE			LTIB			LANK			LHEE			LTOE			RTHI			RKNE			RTIB			RANK			RHEE			RTOE			*39			*40			*41			*42			*43			*44			*45			*46			*47		
		X1	Y1	Z1	X2	Y2	Z2	X3	Y3	Z3	X4	Y4	Z4	X5	Y5	Z5	X6	Y6	Z6	X7	Y7	Z7	X8	Y8	Z8	X9	Y9	Z9	X10	Y10	Z10	X11	Y11	Z11	X12	Y12	Z12	X13	Y13	Z13	X14	Y14	Z14	X15	Y15	Z15	X16	Y16	Z16	X17	Y17	Z17	X18	Y18	Z18	X19	Y19	Z19	X20	Y20	Z20	X21	Y21	Z21	X22	Y22	Z22	X23	Y23	Z23	X24	Y24	Z24	X25	Y25	Z25	X26	Y26	Z26	X27	Y27	Z27	X28	Y28	Z28	X29	Y29	Z29	X30	Y30	Z30	X31	Y31	Z31	X32	Y32	Z32	X33	Y33	Z33	X34	Y34	Z34	X35	Y35	Z35	X36	Y36	Z36	X37	Y37	Z37	X38	Y38	Z38	X39	Y39	Z39	X40	Y40	Z40	X41	Y41	Z41	X42	Y42	Z42	X43	Y43	Z43	X44	Y44	Z44	X45	Y45	Z45	X46	Y46	Z46	X47	Y47	Z47	X48	Y48	Z48
																																																																																																																																																	
102	1.01	-145.0486	1601.42517	-1478.44153	-173.40562	1603.66052	-1347.92285	-273.72256	1565.09546	-1500.53894	-296.77545	1566.90735	-1371.40759	-318.66391	1399.2406	-1446.01831	-348.62979	1084.04187	-1439.97266	-198.43047	1323.00305	-1429.26611	-151.63405	1158.82764	-1433.70581	-379.92169	1218.7876	-1358.71753	-224.07693	1363.23169	-1587.38538	-180.61491	1183.70667	-1669.73535	-128.72408	1075.78699	-1687.1864	-27.98645	1000.57556	-1673.12976	63.80811	937.61877	-1625.48376	49.99503	917.91547	-1674.90112	121.59782	881.14282	-1657.17944	-266.73633	1345.96106	-1276.98914	-300.38654	1125.36902	-1206.48474	-303.53192	1012.17938	-1193.22986	-315.68738	875.49438	-1189.05786	-301.25497	774.78485	-1218.06567	-340.64685	777.32886	-1180.32031	-333.35773	702.74902	-1187.6875	-183.72736	926.25079	-1560.92761	-177.26161	921.11536	-1321.46008	-344.32324	945.93732	-1499.39697	-339.53827	944.38953	-1351.3656	-287.27109	634.29211	-1599.84326	-331.07697	459.48999	-1567.20313	-449.79483	296.61313	-1574.7019	-552.66016	110.99412	-1540.09265	-605.21436	92.38359	-1507.47632	-422.76215	32.93578	-1503.3645	-172.00374	629.85083	-1268.58643	-82.44331	475.91968	-1306.36865	-48.59672	292.12924	-1294.65588	19.36098	83.34384	-1331.09741	-7.94079	37.42433	-1384.93933	163.74998	89.73029	-1343.64868	NaN	NaN	NaN	NaN	NaN	NaN	NaN	NaN	NaN	NaN	NaN	NaN	NaN	NaN	NaN	NaN	NaN	NaN	NaN	NaN	NaN	NaN	NaN	NaN	NaN	NaN	NaN
103	1.02	-131.24858	1600.36328	-1477.86023	-159.1626	1602.69238	-1347.27673	-259.89267	1564.19641	-1499.69385	-282.6438	1565.96179	-1370.44531	-304.64792	1397.94446	-1444.76038	-333.74646	1082.65332	-1439.53577	-184.30501	1322.08569	-1428.50146	-137.15497	1158.11328	-1432.89014	-365.32178	1217.45264	-1357.52271	-210.87859	1362.32666	-1586.65186	-167.9207	1182.55139	-1669.30115	-115.61256	1075.24268	-1686.4613	-13.11997	1003.4599	-1671.08252	80.11831	943.94763	-1622.1394	67.48217	923.43658	-1671.57422	140.39308	890.08167	-1653.526	-252.20451	1344.88367	-1276.05334	-286.25864	1124.35645	-1205.78406	-290.23944	1011.16498	-1192.81287	-304.24634	874.63971	-1188.41113	-291.16699	773.73688	-1217.43665	-330.56781	776.87836	-1179.29858	-325.4332	702.08813	-1187.44043	-168.61075	924.73541	-1559.90454	-161.79564	921.28796	-1320.13684	-328.90741	944.44659	-1498.60962	-324.52365	943.88416	-1350.75134	-272.99567	633.11938	-1599.28076	-317.54956	458.23099	-1567.77136	-440.50266	297.98593	-1575.16064	-548.40924	115.39513	-1540.55383	-601.95618	99.01178	-1508.28809	-422.15646	32.73585	-1503.15088	-153.03197	631.29248	-1268.45227	-64.48325	477.35736	-1306.25317	-34.72774	290.90152	-1294.31262	28.47412	80.82303	-1331.2478	-0.62153	35.17697	-1384.48035	172.508	84.50793	-1346.2738	NaN	NaN	NaN	NaN	NaN	NaN	NaN	NaN	NaN	NaN	NaN	NaN	NaN	NaN	NaN	NaN	NaN	NaN	NaN	NaN	NaN	NaN	NaN	NaN	NaN	NaN	NaN
104	1.03	-117.33231	1599.38232	-1477.35046	-144.91447	1601.71655	-1346.65686	-245.89908	1563.28955	-1498.67004	-268.46332	1565.10168	-1369.52283	-290.66165	1396.78015	-1443.61267	-318.73471	1081.3457	-1439.13745	-170.04761	1321.29102	-1427.64075	-122.17375	1157.55103	-1431.91113	-350.67508	1216.22107	-1356.43225	-197.60576	1361.4502	-1585.89368	-155.58461	1181.34338	-1668.8269	-102.98709	1074.52576	-1685.70837	1.2344	1006.04822	-1669.07654	95.64558	949.76099	-1618.98657	84.03741	928.57263	-1668.34839	158.06636	898.5271	-1649.98206	-237.73944	1344.0603	-1275.10962	-272.31598	1123.52234	-1205.15039	-276.61276	1010.33405	-1192.27649	-291.99081	874.00146	-1187.59949	-281.1593	772.61163	-1217.01526	-319.70557	776.4458	-1178.31384	-316.41211	701.25812	-1187.21167	-152.98119	923.21979	-1558.54199	-146.10127	921.84509	-1318.50269	-313.14383	942.99573	-1497.91748	-309.35013	943.34467	-1350.32227	-257.88971	631.79932	-1598.66187	-303.11975	456.73642	-1568.76135	-430.12415	299.43735	-1575.64404	-543.86493	120.68151	-1541.09583	-597.75256	106.41832	-1508.89038	-421.68576	32.71356	-1503.21143	-133.12776	633.02234	-1267.90686	-46.53102	478.47464	-1306.5553	-21.54593	289.27948	-1294.19849	34.78611	77.46777	-1331.73596	3.51614	33.10005	-1384.46985	178.44696	77.37706	-1348.93848	NaN	NaN	NaN	NaN	NaN	NaN	NaN	NaN	NaN	NaN	NaN	NaN	NaN	NaN	NaN	NaN	NaN	NaN	NaN	NaN	NaN	NaN	NaN	NaN	NaN	NaN	NaN
105	1.04	-103.59014	1598.45337	-1476.74292	-130.74174	1600.79553	-1346.05444	-232.3903	1562.45984	-1497.90051	-254.32042	1564.35962	-1368.58765	-276.63885	1395.61304	-1442.37878	-303.58096	1080.01721	-1438.60706	-155.74731	1320.57886	-1426.68457	-107.067	1157.19629	-1430.979	-335.7821	1214.90381	-1355.37012	-184.21577	1360.62988	-1585.08887	-143.39507	1180.08167	-1668.36853	-90.71387	1073.71375	-1684.89417	14.73649	1008.29028	-1667.18164	110.33338	955.19543	-1615.99084	99.5262	932.94617	-1665.20508	174.62605	906.44989	-1646.62659	-223.24892	1343.27905	-1274.07776	-257.51776	1122.77832	-1204.15222	-262.65237	1009.56781	-1191.71619	-279.4086	873.32367	-1187.01514	-269.72284	771.81177	-1216.43567	-307.93158	776.1275	-1177.32068	-306.86963	700.75922	-1186.90649	-136.86697	921.90356	-1556.91724	-130.14587	922.52368	-1316.76929	-297.16342	941.61047	-1497.24329	-293.67477	942.68372	-1349.88574	-241.93303	630.38947	-1598.18274	-286.84122	454.95081	-1569.75806	-418.82083	301.09329	-1576.08887	-538.57837	126.69753	-1541.45081	-592.49695	114.9411	-1508.79468	-421.20636	32.63392	-1503.23804	-112.87419	634.61481	-1267.69873	-28.7142	478.90891	-1306.66907	-8.99934	287.29642	-1294.42627	39.67923	73.98209	-1332.88293	5.71211	31.97305	-1385.53662	182.51518	67.92416	-1351.5321	NaN	NaN	NaN	NaN	NaN	NaN	NaN	NaN	NaN	NaN	NaN	NaN	NaN	NaN	NaN	NaN	NaN	NaN	NaN	NaN	NaN	NaN	NaN	NaN	NaN	NaN	NaN
106	1.05	-89.69998	1597.75916	-1476.30957	-116.56522	1600.13306	-1345.44141	-218.7066	1561.72778	-1497.03943	-240.24541	1563.56934	-1367.14148	-262.90576	1394.75598	-1441.22778	-288.14236	1078.75684	-1437.84717	-141.31673	1319.97034	-1425.78589	-91.90278	1156.97449	-1429.90955	-320.80319	1213.51514	-1354.31433	-170.90935	1359.80945	-1584.17529	-131.37437	1178.83252	-1667.82581	-78.72072	1072.82654	-1684.08411	27.70594	1010.13739	-1665.29053	124.22646	959.92816	-1613.11865	114.56951	937.01196	-1662.33728	190.1671	913.53723	-1643.36096	-208.67477	1342.71875	-1272.99268	-242.76944	1122.14746	-1203.2478	-248.3748	1008.87805	-1191.12	-266.16547	872.75482	-1186.31018	-257.68118	771.16815	-1216.0719	-295.52551	775.87079	-1176.34314	-296.25107	700.30945	-1186.68909	-120.2269	920.64478	-1555.21338	-114.12559	923.28479	-1315.12915	-281.32278	940.34308	-1496.33191	-278.06699	942.21069	-1348.97681	-225.00891	628.79193	-1597.79846	-268.90414	452.8064	-1570.95288	-406.30579	302.87604	-1576.45959	-531.90356	133.32753	-1541.24036	-585.60992	124.41142	-1507.95178	-420.48767	32.70955	-1503.26978	-92.66973	635.97314	-1267.13208	-11.8375	479.53882	-1306.1925	3.20483	285.8287	-1295.97668	46.10019	73.11642	-1333.01819	8.959	34.8172	-1386.05286	188.88988	54.95922	-1353.74072	NaN	NaN	NaN	NaN	NaN	NaN	NaN	NaN	NaN	NaN	NaN	NaN	NaN	NaN	NaN	NaN	NaN	NaN	NaN	NaN	NaN	NaN	NaN	NaN	NaN	NaN	NaN
